<?xml version="1.0" encoding="UTF-8" standalone="no"?>
<!-- Created with Inkscape (http://www.inkscape.org/) -->
<svg xmlns:rdf="http://www.w3.org/1999/02/22-rdf-syntax-ns#" xmlns="http://www.w3.org/2000/svg" version="1.1" xmlns:cc="http://creativecommons.org/ns#" xmlns:dc="http://purl.org/dc/elements/1.1/" viewBox="0 0 32 32">
<metadata>
<rdf:RDF>
<cc:Work rdf:about="">
<dc:format>image/svg+xml</dc:format>
<dc:type rdf:resource="http://purl.org/dc/dcmitype/StillImage"/>
<dc:title/>
</cc:Work>
</rdf:RDF>
</metadata>
<g transform="translate(0,-1020.3622)">
<path fill="#000" d="m22.51,1034q0-0.4406-0.3219-0.7625t-0.7624-0.3219q-2.914,0-5.388,0.8387t-4.397,2.27q-1.923,1.432-3.99,3.719-0.3219,0.3559-0.3219,0.7625,0,0.4405,0.3219,0.7624,0.3219,0.322,0.7624,0.322,0.4066,0,0.7624-0.322,0.4575-0.4066,1.254-1.203,0.7963-0.7964,1.135-1.118,2.321-2.101,4.549-2.982,2.228-0.8811,5.312-0.8811,0.4405,0,0.7624-0.3219t0.3219-0.7624zm8.675-3.355q0,1.61-0.3389,3.27-0.7794,3.795-3.126,6.489t-6.057,4.541q-3.626,1.83-7.421,1.83-2.508,0-4.846-0.7963-0.2541-0.085-1.491-0.7116-1.237-0.6269-1.627-0.6269-0.2711,0-0.6693,0.5421-0.3982,0.5422-0.7624,1.186-0.3643,0.6438-0.8895,1.186t-1.017,0.5422q-0.7286,0-1.076-0.2965-0.3473-0.2965-0.7709-1.008-0.03389-0.068-0.1017-0.1864-0.06777-0.1186-0.09319-0.1694-0.02542-0.051-0.05083-0.161-0.02542-0.1101-0.02542-0.2287,0-0.5931,0.5252-1.245,0.5252-0.6523,1.152-1.11,0.6269-0.4574,1.152-0.9488,0.5252-0.4913,0.5252-0.8133,0-0.068-0.2372-0.6438-0.2372-0.5761-0.2711-0.7455-0.1525-0.8641-0.1525-1.762,0-1.948,0.737-3.728,0.737-1.779,2.016-3.126t2.889-2.355,3.456-1.618q0.9319-0.305,2.457-0.4321,1.525-0.127,3.041-0.1525,1.516-0.025,3.024-0.1016,1.508-0.076,2.77-0.4067,1.262-0.3303,1.923-0.9572l0.4998-0.4999t0.4998-0.4744,0.4575-0.3389q-0.04236,0.1356,0.6184-0.271,0.6608-0.4067,0.737-0.076,0.6608,0,1.195,0.7794,0.5337,0.7794,0.8048,1.898,0.2711,1.118,0.4066,2.101,0.1355,0.9827,0.1355,1.627z"/>
</g>
</svg>
