<?xml version="1.0" encoding="UTF-8" standalone="no"?>
<!-- Created with Inkscape (http://www.inkscape.org/) -->
<svg xmlns:rdf="http://www.w3.org/1999/02/22-rdf-syntax-ns#" xmlns="http://www.w3.org/2000/svg" version="1.1" xmlns:cc="http://creativecommons.org/ns#" xmlns:dc="http://purl.org/dc/elements/1.1/" viewBox="0 0 32 32">
<metadata>
<rdf:RDF>
<cc:Work rdf:about="">
<dc:format>image/svg+xml</dc:format>
<dc:type rdf:resource="http://purl.org/dc/dcmitype/StillImage"/>
<dc:title/>
</cc:Work>
</rdf:RDF>
</metadata>
<g transform="translate(0,-1020.3622)">
<path fill="#000000" d="m13.23,1047q0,0.077,0.01925,0.385,0.01925,0.3079,0.0096,0.51-0.0096,0.2021-0.05774,0.4523-0.04812,0.2502-0.1925,0.3753-0.1443,0.1251-0.3946,0.1251h-6.166q-2.29,0-3.917-1.626-1.626-1.626-1.626-3.917v-13.55q0-2.29,1.626-3.917,1.626-1.626,3.917-1.626h6.159q0.2502,0,0.433,0.1829,0.1828,0.1828,0.1828,0.433,0,0.077,0.01925,0.3849,0.01925,0.308,0.0096,0.5101-0.0096,0.2021-0.05774,0.4523-0.04812,0.2502-0.1925,0.3753-0.1443,0.1251-0.3946,0.1251h-6.156q-1.27,0-2.175,0.9046-0.9046,0.9046-0.9046,2.175v13.55q0,1.27,0.9046,2.175,0.9046,0.9045,2.175,0.9045h6.005t0.2213,0.019,0.2213,0.058q0,0.038,0.154,0.1059,0.154,0.067,0.1347,0.1732-0.01925,0.1059,0.03849,0.2598zm17.86-10.47q0,0.5004-0.3657,0.8661l-10.47,10.47q-0.3657,0.3657-0.8661,0.3657t-0.8661-0.3657-0.3657-0.8661v-5.543h-8.607q-0.5004,0-0.8661-0.3657-0.3657-0.3656-0.3657-0.866v-7.391q0-0.5004,0.3657-0.8661t0.8661-0.3657h8.622v-5.543q0-0.5004,0.3657-0.8661t0.8661-0.3657,0.8661,0.3657l10.47,10.47q0.3657,0.3657,0.3657,0.8661z"/>
</g>
</svg>
