<?xml version="1.0" encoding="UTF-8" standalone="no"?>
<!-- Created with Inkscape (http://www.inkscape.org/) -->
<svg xmlns:rdf="http://www.w3.org/1999/02/22-rdf-syntax-ns#" xmlns="http://www.w3.org/2000/svg" version="1.1" xmlns:cc="http://creativecommons.org/ns#" xmlns:dc="http://purl.org/dc/elements/1.1/" viewBox="0 0 32 32">
<metadata>
<rdf:RDF>
<cc:Work rdf:about="">
<dc:format>image/svg+xml</dc:format>
<dc:type rdf:resource="http://purl.org/dc/dcmitype/StillImage"/>
<dc:title/>
</cc:Work>
</rdf:RDF>
</metadata>
<g transform="translate(0,-1020.3622)">
<path fill="#000" d="m22.24,1046v2.497q0,0.5072-0.3706,0.8778t-0.8778,0.3706h-9.987q-0.5072,0-0.8778-0.3706t-0.3706-0.8778v-2.497q0-0.5072,0.3706-0.8778t0.8778-0.3706h1.248v-7.49h-1.248q-0.5072,0-0.8778-0.3706t-0.3706-0.8777v-2.497q0-0.5071,0.3706-0.8778,0.3706-0.3706,0.8778-0.3706h7.49q0.5072,0,0.8778,0.3706,0.3706,0.3707,0.3706,0.8778v11.24h1.248q0.5072,0,0.8778,0.3706t0.3706,0.8778zm-2.497-22.47v3.745q0,0.5072-0.3706,0.8778t-0.8778,0.3706h-4.994q-0.5072,0-0.8778-0.3706t-0.3706-0.8778v-3.745q0-0.5072,0.3706-0.8778t0.8778-0.3706h4.994q0.5072,0,0.8778,0.3706t0.3706,0.8778z"/>
</g>
</svg>
