<?xml version="1.0" encoding="UTF-8" standalone="no"?>
<!-- Created with Inkscape (http://www.inkscape.org/) -->
<svg xmlns:rdf="http://www.w3.org/1999/02/22-rdf-syntax-ns#" xmlns="http://www.w3.org/2000/svg" version="1.1" xmlns:cc="http://creativecommons.org/ns#" xmlns:dc="http://purl.org/dc/elements/1.1/" viewBox="0 0 32 32">
<metadata>
<rdf:RDF>
<cc:Work rdf:about="">
<dc:format>image/svg+xml</dc:format>
<dc:type rdf:resource="http://purl.org/dc/dcmitype/StillImage"/>
<dc:title/>
</cc:Work>
</rdf:RDF>
</metadata>
<g transform="translate(0,-1020.3622)">
<path fill="#000" d="m11.68,1047q0-0.7709-0.5396-1.31-0.5396-0.5396-1.31-0.5396-0.7708,0-1.31,0.5396-0.5396,0.5395-0.5396,1.31,0,0.7708,0.5396,1.31,0.5396,0.5396,1.31,0.5396,0.7708,0,1.31-0.5396,0.5396-0.5396,0.5396-1.31zm0-22.2q0-0.7708-0.5396-1.31-0.5396-0.5396-1.31-0.5396-0.7708,0-1.31,0.5396-0.5396,0.5396-0.5396,1.31,0,0.7709,0.5396,1.31,0.5396,0.5396,1.31,0.5396,0.7708,0,1.31-0.5396,0.5396-0.5395,0.5396-1.31zm12.33,2.467q0-0.7708-0.5396-1.31-0.5396-0.5396-1.31-0.5396-0.7708,0-1.31,0.5396-0.5396,0.5396-0.5396,1.31,0,0.7708,0.5396,1.31,0.5396,0.5396,1.31,0.5396,0.7708,0,1.31-0.5396,0.5396-0.5396,0.5396-1.31zm1.85,0q0,1.002-0.501,1.86-0.501,0.8575-1.349,1.339-0.03854,5.531-4.355,7.978-1.291,0.7323-3.912,1.561-2.467,0.7708-3.266,1.368-0.7997,0.5974-0.7997,1.927v0.501q0.8479,0.4818,1.349,1.339,0.501,0.8575,0.501,1.86,0,1.542-1.079,2.621t-2.621,1.079-2.621-1.079-1.079-2.621q0-1.002,0.501-1.86,0.501-0.8576,1.349-1.339v-15.8q-0.8479-0.4818-1.349-1.339-0.501-0.8576-0.501-1.86,0-1.542,1.079-2.621t2.621-1.079,2.621,1.079,1.079,2.621q0,1.002-0.501,1.86-0.501,0.8575-1.349,1.339v9.578q1.041-0.501,2.968-1.098,1.06-0.3276,1.686-0.5685,0.6263-0.2409,1.359-0.5974,0.7323-0.3565,1.137-0.7612t0.7805-0.9828,0.5396-1.339q0.1638-0.7612,0.1638-1.763-0.8479-0.4818-1.349-1.339-0.501-0.8575-0.501-1.86,0-1.542,1.079-2.621t2.621-1.079,2.621,1.079,1.079,2.621z"/>
</g>
</svg>
