<?xml version="1.0" encoding="UTF-8" standalone="no"?>
<!-- Created with Inkscape (http://www.inkscape.org/) -->
<svg xmlns:rdf="http://www.w3.org/1999/02/22-rdf-syntax-ns#" xmlns="http://www.w3.org/2000/svg" version="1.1" xmlns:cc="http://creativecommons.org/ns#" xmlns:dc="http://purl.org/dc/elements/1.1/" viewBox="0 0 64 64">
<metadata>
<rdf:RDF>
<cc:Work rdf:about="">
<dc:format>image/svg+xml</dc:format>
<dc:type rdf:resource="http://purl.org/dc/dcmitype/StillImage"/>
<dc:title/>
</cc:Work>
</rdf:RDF>
</metadata>
<g transform="translate(0,-988.36218)">
<rect ry="1.43" style="enable-background:accumulate;color:#000000;" fill-rule="nonzero" transform="matrix(0.86602536,-0.50000008,0.50000008,0.86602536,0,0)" height="10.42" width="66.62" y="894.7" x="-515.9" fill="#FFF"/>
<rect style="enable-background:accumulate;color:#000000;" ry="1.448" height="42.98" width="24.17" y="998.9" x="19.89" fill="#FFF"/>
<g fill-rule="nonzero" transform="matrix(0.02471816,0,0,0.02471816,25.180797,1056.4136)" fill="#000">
<g transform="matrix(0.8660254,-0.5,0.5,0.8660254,18.235859,-1935.837)">
<rect style="enable-background:accumulate;color:#000000;" height="200" width="400" y="454.4" x="-620.2"/>
<rect style="enable-background:accumulate;color:#000000;" height="200" width="200" y="454.4" x="-849.8"/>
<rect style="enable-background:accumulate;color:#000000;" height="200" width="100" y="454.4" x="-979.3"/>
<rect style="enable-background:accumulate;color:#000000;" height="200" width="50" y="454.4" x="-1059"/>
<rect style="enable-background:accumulate;color:#000000;" height="200" width="50" y="454.4" x="-1138"/>
<rect style="enable-background:accumulate;color:#000000;" height="200" width="25" y="454.4" x="-1193"/>
<rect style="enable-background:accumulate;color:#000000;" height="200" width="12.5" y="454.4" x="-1235"/>
<rect style="enable-background:accumulate;color:#000000;" height="200" width="6.25" y="454.4" x="-1271"/>
</g>
<g transform="matrix(-0.8660254,0.5,-0.5,-0.8660254,537.57057,-955.45421)">
<rect style="enable-background:accumulate;color:#000000;" height="200" width="400" y="454.4" x="-620.2"/>
<rect style="enable-background:accumulate;color:#000000;" height="200" width="200" y="454.4" x="-849.8"/>
<rect style="enable-background:accumulate;color:#000000;" height="200" width="100" y="454.4" x="-979.3"/>
<rect style="enable-background:accumulate;color:#000000;" height="200" width="50" y="454.4" x="-1059"/>
<rect style="enable-background:accumulate;color:#000000;" height="200" width="50" y="454.4" x="-1138"/>
<rect style="enable-background:accumulate;color:#000000;" height="200" width="25" y="454.4" x="-1193"/>
<rect style="enable-background:accumulate;color:#000000;" height="200" width="12.5" y="454.4" x="-1235"/>
<rect style="enable-background:accumulate;color:#000000;" height="200" width="6.25" y="454.4" x="-1271"/>
</g>
</g>
<rect style="enable-background:accumulate;color:#000000;" ry="0.4767" height="36.73" width="17.86" stroke="#000" y="1002" x="23.12" stroke-width="0.4944" fill="#FFF"/>
<g transform="matrix(0.02471816,0,0,0.02471816,26.898458,1014.736)">
<g transform="translate(-152.53303,-22.223388)">
<path style="enable-background:accumulate;color:#000000;" d="m298.6,695.2c0,51.28-41.57,92.86-92.86,92.86-51.28,0-92.86-41.57-92.86-92.86,0-51.28,41.57-92.86,92.86-92.86,51.28,0,92.86,41.57,92.86,92.86z" transform="translate(-13.463379,-8.6431641e-4)" stroke="#000" stroke-miterlimit="4" stroke-dasharray="none" stroke-width="20" fill="none"/>
<path d="m231.4,642,0,106.4-102.3-53.21,102.3-53.21,0,0" fill="#000"/>
</g>
<g transform="matrix(-1,0,0,-1,569.35972,1368.2135)">
<path style="enable-background:accumulate;color:#000000;" d="m298.6,695.2c0,51.28-41.57,92.86-92.86,92.86-51.28,0-92.86-41.57-92.86-92.86,0-51.28,41.57-92.86,92.86-92.86,51.28,0,92.86,41.57,92.86,92.86z" transform="translate(-13.463379,-8.6431641e-4)" stroke="#000" stroke-miterlimit="4" stroke-dasharray="none" stroke-width="20" fill="none"/>
<path fill="#000" d="m231.4,642,0,106.4-102.3-53.21,102.3-53.21,0,0"/>
</g>
<g transform="matrix(0,-1,1,0,-486.8051,1030.911)">
<path style="enable-background:accumulate;color:#000000;" d="m298.6,695.2c0,51.28-41.57,92.86-92.86,92.86-51.28,0-92.86-41.57-92.86-92.86,0-51.28,41.57-92.86,92.86-92.86,51.28,0,92.86,41.57,92.86,92.86z" transform="translate(-13.463379,-8.6431641e-4)" stroke="#000" stroke-miterlimit="4" stroke-dasharray="none" stroke-width="20" fill="none"/>
<path d="m231.4,642,0,106.4-102.3-53.21,102.3-53.21,0,0" fill="#000"/>
</g>
<g transform="matrix(0,1,-1,0,903.63178,315.07914)">
<path style="enable-background:accumulate;color:#000000;" d="m298.6,695.2c0,51.28-41.57,92.86-92.86,92.86-51.28,0-92.86-41.57-92.86-92.86,0-51.28,41.57-92.86,92.86-92.86,51.28,0,92.86,41.57,92.86,92.86z" transform="translate(-13.463379,-8.6431641e-4)" stroke="#000" stroke-miterlimit="4" stroke-dasharray="none" stroke-width="20" fill="none"/>
<path fill="#000" d="m231.4,642,0,106.4-102.3-53.21,102.3-53.21,0,0"/>
</g>
</g>
<rect style="enable-background:accumulate;color:#000000;" fill-rule="nonzero" ry="0.4339" height="4.364" width="4.364" y="1004" x="24.71" fill="#000"/>
<g style="letter-spacing:0px;word-spacing:0px;" font-family="Sans" font-size="3.45637321px" line-height="125%" font-style="normal" font-weight="normal" fill="#FFF">
<path d="m26.76,1005-0.5876,0,0-0.3214c0.424,0,0.674-0.1463,0.75-0.439h0.3214v2.451h-0.4839v-1.69"/>
</g>
<rect style="enable-background:accumulate;color:#000000;" fill-rule="nonzero" ry="0.4339" height="4.364" width="4.364" y="1004" x="29.87" fill="#000"/>
<g style="letter-spacing:0px;word-spacing:0px;" font-family="Sans" font-size="3.45637321px" line-height="125%" font-style="normal" font-weight="normal" fill="#FFF">
<path d="m32.89,1005c-0.000002,0.1359-0.02996,0.2592-0.08987,0.3698-0.05761,0.1106-0.1313,0.2039-0.2212,0.28-0.08987,0.074-0.182,0.1428-0.2765,0.2074-0.09447,0.062-0.1855,0.1313-0.2731,0.2073-0.08756,0.074-0.1498,0.1498-0.1866,0.2282h1.037v0.432h-1.666c0.01152-0.2258,0.05645-0.4044,0.1348-0.5357,0.08065-0.1337,0.2247-0.2731,0.432-0.4182,0.2696-0.189,0.4413-0.3284,0.515-0.4183,0.07373-0.092,0.1106-0.2062,0.1106-0.3421-0.000001-0.1222-0.03111-0.2178-0.09332-0.2869-0.05991-0.072-0.144-0.1072-0.2523-0.1072-0.1106,0-0.197,0.038-0.2592,0.1141-0.05991,0.076-0.08987,0.182-0.08987,0.318v0.08h-0.4632c-0.0023-0.025-0.0035-0.054-0.0035-0.086,0-0.2581,0.07028-0.4586,0.2108-0.6014,0.1429-0.1452,0.341-0.2178,0.5945-0.2178,0.2581,0,0.462,0.07,0.6118,0.2108,0.1521,0.1406,0.2281,0.3296,0.2281,0.5669"/>
</g>
<rect style="enable-background:accumulate;color:#000000;" fill-rule="nonzero" ry="0.4339" height="4.364" width="4.364" y="1004" x="35.03" fill="#000"/>
<g style="letter-spacing:0px;word-spacing:0px;" font-family="Sans" font-size="3.45637321px" line-height="125%" font-style="normal" font-weight="normal" fill="#FFF">
<path d="m36.4,1005c0-0.1267,0.01728-0.2384,0.05185-0.3352,0.03687-0.097,0.0818-0.1728,0.1348-0.2281,0.0553-0.055,0.1198-0.099,0.1936-0.1314,0.07374-0.034,0.1429-0.058,0.2074-0.069,0.06682-0.012,0.136-0.017,0.2074-0.017,0.2373,0,0.4263,0.061,0.5668,0.1832,0.1406,0.1198,0.2108,0.2811,0.2108,0.4839-0.000002,0.1129-0.02535,0.2108-0.07604,0.2938-0.0507,0.081-0.1325,0.1567-0.2454,0.2281,0.1383,0.067,0.2396,0.1498,0.3042,0.2489,0.06452,0.097,0.09678,0.2166,0.09678,0.3594-0.000002,0.2397-0.07835,0.4309-0.235,0.5738-0.1544,0.1405-0.3618,0.2108-0.6221,0.2108-0.2512,0-0.4516-0.071-0.6014-0.2143-0.1475-0.1451-0.2224-0.3399-0.2247-0.5841h0.4701c0.01383,0.2558,0.136,0.3837,0.3664,0.3837,0.106,0,0.1924-0.035,0.2592-0.1037,0.06913-0.069,0.1037-0.1579,0.1037-0.2662-0.000002-0.09-0.0242-0.167-0.07258-0.2316-0.04839-0.067-0.1129-0.1117-0.1936-0.1348-0.06452-0.016-0.159-0.024-0.2834-0.024v-0.3249h0.04148c0.2857,0,0.4286-0.1233,0.4286-0.3699-0.000001-0.1014-0.0265-0.1797-0.0795-0.235-0.053-0.058-0.1279-0.086-0.2247-0.086-0.1267,0-0.2131,0.036-0.2592,0.1071-0.04609,0.072-0.07143,0.1798-0.07604,0.3249h-0.4493v-0.042"/>
</g>
<rect style="enable-background:accumulate;color:#000000;" fill-rule="nonzero" ry="0.4339" height="4.364" width="4.364" y="1009" x="24.71" fill="#000"/>
<g style="letter-spacing:0px;word-spacing:0px;" font-family="Sans" font-size="3.45637321px" line-height="125%" font-style="normal" font-weight="normal" fill="#FFF">
<path d="m27.75,1011,0,0.4009-0.2558,0,0,0.5427-0.4839,0,0-0.5427-0.9816,0,0-0.4078,0.8952-1.5,0.5703,0,0,1.507,0.2558,0m-0.7397,0,0-1.047-0.6394,1.047,0.6394,0"/>
</g>
<rect style="enable-background:accumulate;color:#000000;" fill-rule="nonzero" ry="0.4339" height="4.364" width="4.364" y="1009" x="29.87" fill="#000"/>
<g style="letter-spacing:0px;word-spacing:0px;" font-family="Sans" font-size="3.45637321px" line-height="125%" font-style="normal" font-weight="normal" fill="#FFF">
<path d="m32.8,1010,0,0.432-1.013,0-0.0795,0.5115c0.1313-0.099,0.2731-0.1486,0.4251-0.1486,0.2258,0,0.409,0.078,0.5496,0.2351,0.1429,0.1566,0.2143,0.3606,0.2143,0.6117-0.000001,0.265-0.0818,0.4793-0.2454,0.6429s-0.3767,0.2454-0.6394,0.2454c-0.2373,0-0.4309-0.066-0.5807-0.197-0.1475-0.1336-0.2235-0.3076-0.2281-0.5219h0.477c0.01152,0.2028,0.1244,0.3042,0.3387,0.3042,0.1221,0,0.2178-0.041,0.2869-0.1245,0.07143-0.083,0.1071-0.1958,0.1071-0.3387-0.000001-0.1475-0.03572-0.2627-0.1071-0.3456-0.06913-0.085-0.1648-0.1279-0.2869-0.1279-0.1544,0-0.2581,0.062-0.3111,0.1866h-0.4355l0.2178-1.365h1.31"/>
</g>
<rect style="enable-background:accumulate;color:#000000;" fill-rule="nonzero" ry="0.4339" height="4.364" width="4.364" y="1009" x="35.03" fill="#000"/>
<g style="letter-spacing:0px;word-spacing:0px;" font-family="Sans" font-size="3.45637321px" line-height="125%" font-style="normal" font-weight="normal" fill="#FFF">
<path d="m36.37,1011c0-0.8917,0.3019-1.338,0.9056-1.338,0.04378,0,0.08641,0,0.1279,0.01,0.04148,0,0.09678,0.018,0.1659,0.041,0.07143,0.023,0.1336,0.054,0.1866,0.093,0.0553,0.039,0.1071,0.099,0.1555,0.1797,0.05069,0.081,0.0841,0.1763,0.1002,0.2869h-0.4493c-0.03226-0.078-0.07143-0.1336-0.1175-0.1659-0.04378-0.035-0.1048-0.052-0.1832-0.052-0.08065,0-0.1486,0.017-0.2039,0.052-0.053,0.032-0.09332,0.084-0.121,0.1555-0.02765,0.072-0.04724,0.1452-0.05876,0.2212s-0.01959,0.1717-0.02419,0.2869c0.07604-0.078,0.1509-0.1336,0.2247-0.1659,0.07373-0.034,0.1613-0.052,0.2627-0.052,0.2097,0,0.3802,0.074,0.5115,0.2212,0.1336,0.1475,0.2005,0.3387,0.2005,0.5737-0.000002,0.2673-0.07604,0.4839-0.2281,0.6498-0.1498,0.1659-0.3468,0.2489-0.591,0.2489-0.1221,0-0.2316-0.018-0.3284-0.055-0.09678-0.037-0.1878-0.099-0.2731-0.1866-0.08295-0.088-0.1475-0.2155-0.1936-0.3837-0.04608-0.1705-0.06913-0.3768-0.06913-0.6187m1.123,0.052c-0.06682-0.081-0.1567-0.1209-0.2696-0.1209s-0.2039,0.043-0.2731,0.1279c-0.06913,0.083-0.1037,0.1924-0.1037,0.3283,0,0.1291,0.03456,0.2351,0.1037,0.318,0.06913,0.083,0.159,0.1244,0.2696,0.1244,0.1083,0,0.197-0.043,0.2661-0.1279,0.07143-0.085,0.1071-0.1935,0.1071-0.3249-0.000001-0.1359-0.03341-0.2442-0.1002-0.3249"/>
</g>
<rect style="enable-background:accumulate;color:#000000;" fill-rule="nonzero" ry="0.4339" height="4.364" width="4.364" y="1014" x="24.71" fill="#000"/>
<g style="letter-spacing:0px;word-spacing:0px;" font-family="Sans" font-size="3.45637321px" line-height="125%" font-style="normal" font-weight="normal" fill="#FFF">
<path d="m27.75,1015,0,0.3802c-0.2903,0.3503-0.5035,0.6867-0.6394,1.009-0.136,0.3203-0.2154,0.674-0.2385,1.061h-0.4873c0.0553-0.4332,0.1463-0.7973,0.2731-1.092,0.129-0.295,0.3249-0.6038,0.5876-0.9263h-1.22v-0.4321h1.725"/>
</g>
<rect style="enable-background:accumulate;color:#000000;" fill-rule="nonzero" ry="0.4339" height="4.364" width="4.364" y="1014" x="29.87" fill="#000"/>
<g style="letter-spacing:0px;word-spacing:0px;" font-family="Sans" font-size="3.45637321px" line-height="125%" font-style="normal" font-weight="normal" fill="#FFF">
<path d="m32.84,1016c-0.000001,0.129-0.0288,0.2327-0.08641,0.3111-0.0553,0.076-0.1325,0.1405-0.2316,0.1935,0.1406,0.076,0.2419,0.1636,0.3042,0.2627,0.06452,0.099,0.09678,0.2212,0.09678,0.3664-0.000002,0.2304-0.08065,0.4194-0.2419,0.5668-0.1613,0.1452-0.3698,0.2178-0.6256,0.2178-0.2581,0-0.4678-0.073-0.6291-0.2178-0.1613-0.1451-0.2419-0.3341-0.2419-0.5668-0.000001-0.1452,0.03111-0.2673,0.09332-0.3664,0.06452-0.099,0.1671-0.1866,0.3076-0.2627-0.1106-0.06-0.1913-0.129-0.2419-0.2074-0.05069-0.078-0.07604-0.1762-0.07604-0.2938,0-0.1935,0.07374-0.3525,0.2212-0.4769,0.1498-0.1268,0.3387-0.1901,0.5668-0.1901,0.2258,0,0.4125,0.063,0.5599,0.1901,0.1498,0.1244,0.2247,0.2822,0.2247,0.4735m-0.5185-0.1832c-0.06682-0.06-0.1544-0.09-0.2627-0.09s-0.197,0.03-0.2661,0.09c-0.06682,0.058-0.1002,0.1336-0.1002,0.2281,0,0.095,0.03341,0.1728,0.1002,0.2351,0.06913,0.06,0.1578,0.09,0.2661,0.09,0.106,0,0.1924-0.03,0.2592-0.09,0.06913-0.06,0.1037-0.1371,0.1037-0.2316-0.000001-0.095-0.03341-0.1717-0.1002-0.2316m-0.2696,0.8814c-0.1152,0-0.2085,0.037-0.28,0.1106-0.06913,0.074-0.1037,0.1728-0.1037,0.2972-0.000001,0.1222,0.03456,0.2189,0.1037,0.2904,0.06913,0.071,0.1624,0.1071,0.28,0.1071,0.1175,0,0.2108-0.036,0.28-0.1071,0.07143-0.072,0.1071-0.1659,0.1071-0.2835-0.000001-0.1267-0.03457-0.2269-0.1037-0.3007-0.06913-0.076-0.1636-0.114-0.2834-0.114"/>
</g>
<rect style="enable-background:accumulate;color:#000000;" fill-rule="nonzero" ry="0.4339" height="4.364" width="4.364" y="1014" x="35.03" fill="#000"/>
<g style="letter-spacing:0px;word-spacing:0px;" font-family="Sans" font-size="3.45637321px" line-height="125%" font-style="normal" font-weight="normal" fill="#FFF">
<path d="m38.05,1016c-0.000002,0.2212-0.01959,0.4159-0.05876,0.5841s-0.08872,0.3007-0.1486,0.3975c-0.05761,0.097-0.1279,0.1751-0.2108,0.2351-0.08295,0.058-0.1625,0.096-0.2385,0.114-0.07604,0.021-0.1578,0.031-0.2454,0.031-0.212,0-0.3894-0.061-0.5323-0.1832-0.1406-0.1244-0.2131-0.2811-0.2178-0.47h0.4666c0.0046,0.071,0.03341,0.129,0.08641,0.1728,0.0553,0.044,0.1256,0.066,0.2108,0.066,0.2696,0,0.4044-0.2328,0.4044-0.6982-0.0023,0-0.01152,0.014-0.02765,0.034-0.01613,0.019-0.02996,0.033-0.04148,0.045-0.0092,0.01-0.0242,0.024-0.04493,0.045-0.02074,0.018-0.04263,0.033-0.06567,0.045-0.02074,0.012-0.04609,0.024-0.07604,0.038-0.02765,0.011-0.05991,0.021-0.09678,0.028-0.03687,0-0.07604,0.01-0.1175,0.01-0.2166,0-0.3929-0.078-0.5288-0.235-0.136-0.1567-0.2039-0.3618-0.2039-0.6153,0-0.2557,0.07604-0.4631,0.2281-0.6221,0.1544-0.1613,0.3537-0.2419,0.598-0.2419,0.07834,0,0.1532,0.01,0.2247,0.028,0.07143,0.016,0.1463,0.052,0.2247,0.1072,0.08065,0.053,0.1498,0.1221,0.2074,0.2073,0.05991,0.085,0.1083,0.204,0.1452,0.356,0.03917,0.1521,0.05876,0.3272,0.05876,0.5254m-0.8745-0.8295c-0.1083,0-0.1947,0.043-0.2592,0.1279-0.06221,0.083-0.09332,0.1947-0.09332,0.3352,0,0.1406,0.03226,0.2524,0.09678,0.3353,0.06452,0.081,0.1521,0.121,0.2627,0.121s0.2005-0.042,0.2696-0.1245c0.06913-0.083,0.1037-0.1912,0.1037-0.3249-0.000001-0.1428-0.03457-0.2569-0.1037-0.3421-0.06682-0.085-0.159-0.1279-0.2765-0.1279"/>
</g>
<rect style="enable-background:accumulate;color:#000000;" fill-rule="nonzero" ry="0.4339" height="4.364" width="4.364" y="1020" x="24.71" fill="#ff2e2e"/>
<rect style="enable-background:accumulate;color:#000000;" fill-rule="nonzero" ry="0.4339" height="4.364" width="4.364" y="1020" x="29.87" fill="#000"/>
<g style="letter-spacing:0px;word-spacing:0px;" font-family="Sans" font-size="3.45637321px" line-height="125%" font-style="normal" font-weight="normal" fill="#FFF">
<path d="m32.46,1023c-0.1129,0.064-0.2512,0.097-0.4148,0.097s-0.3019-0.032-0.4148-0.097c-0.1129-0.067-0.2005-0.1613-0.2627-0.2834-0.05991-0.1221-0.1025-0.2558-0.1279-0.401-0.02535-0.1474-0.03802-0.3168-0.03802-0.5081,0-0.417,0.06337-0.7362,0.1901-0.9574,0.1267-0.2235,0.3445-0.3352,0.6533-0.3352,0.1613,0,0.2972,0.031,0.4079,0.093,0.1129,0.06,0.2005,0.1498,0.2627,0.2696,0.06221,0.1198,0.106,0.2558,0.1313,0.4078,0.02765,0.1521,0.04147,0.3307,0.04148,0.5358-0.000001,0.1843-0.01268,0.3491-0.03802,0.4942-0.02535,0.1429-0.06798,0.2765-0.1279,0.401-0.05991,0.1221-0.1475,0.2166-0.2627,0.2834m-0.0553-1.189c-0.000001-0.3341-0.03111-0.568-0.09332-0.7016-0.05991-0.136-0.1486-0.204-0.2661-0.204-0.129,0-0.2212,0.066-0.2765,0.197-0.0553,0.1291-0.08295,0.363-0.08295,0.7017-0.000001,0.235,0.01498,0.4194,0.04493,0.553,0.02996,0.1314,0.06913,0.2189,0.1175,0.2627,0.05069,0.042,0.1164,0.062,0.197,0.062,0.07834,0,0.1417-0.021,0.1901-0.062,0.05069-0.041,0.09102-0.1279,0.121-0.2592,0.03226-0.1337,0.04839-0.3169,0.04839-0.5496"/>
</g>
<rect style="enable-background:accumulate;color:#000000;" fill-rule="nonzero" ry="0.4339" height="4.364" width="4.364" y="1020" x="35.03" fill="#5c46ff"/>
</g>
</svg>
